<svg version="1.1" id="Layer_1" xmlns="http://www.w3.org/2000/svg" xmlns:xlink="http://www.w3.org/1999/xlink" x="0px" y="0px" viewBox="0 0 76.9 77" style="enable-background:new 0 0 76.9 77;" xml:space="preserve">
 <style type="text/css">
  .st0{fill-rule:evenodd;clip-rule:evenodd;fill:#F58423;}
 </style>
 <g>
  <g>
   <g>
    <path class="st0" d="M34.9,69.8V56.5c-5.9,0.5-11.7,2.9-16.3,6.1C22.7,66.4,28.5,68.8,34.9,69.8z M34.9,48.9v-6.6H7.7
				c0.5,5.8,2.8,10.4,5.9,14.7C19.5,52.7,26.7,49.4,34.9,48.9z M34.9,35.1v-6.6c-8.2-0.5-15.5-3.8-21.3-8c-3.1,4.3-5,9.5-5.9,14.7
				h27.2V35.1z M34.9,20.9V7.7c-6.4,1-11.7,3.4-16.3,7.1C23.1,18.1,28.5,20.4,34.9,20.9z M42.2,7.7V21c5.9-0.5,11.7-2.9,16.3-6.1
				C53.9,10.9,48.1,8.5,42.2,7.7z M42.2,28.5v6.6h27.2c-0.5-5.8-2.8-10.4-5.9-14.7C57.5,24.7,49.9,27.6,42.2,28.5z M42.2,42.3v6.6
				c8.2,0.5,15.5,3.8,21.3,8c3.1-4.3,5-9.5,5.9-14.7H42.2V42.3z M42.2,56v13.3c6.4-1,11.7-3.4,16.3-7.1C53.9,58.9,48.1,56.9,42.2,56
				z M0,38.5C0,17.1,17.3,0,38.5,0s38.5,17.1,38.5,38.5S59.7,77,38.5,77S0,59.8,0,38.5z">
    </path>
   </g>
  </g>
 </g>
</svg>