<svg width="210" height="107" viewBox="0 0 210 107" fill="none" xmlns="http://www.w3.org/2000/svg">
<g clip-path="url(#clip0_29_887)">
<g opacity="0.5">
<path d="M48.8348 22.096V7.85743C21.9288 7.84325 0.099608 29.5556 0.0142822 56.3736H14.3064C14.3917 37.4266 29.8214 22.096 48.8348 22.096Z" fill="#065BAA"/>
<path d="M97.6554 56.5298L83.3633 56.5439C83.3633 75.5476 67.8909 90.9633 48.8348 90.9633V105.201C59.7849 105.216 69.8961 101.628 78.0447 95.5441C78.6704 95.076 79.2819 94.5939 79.8935 94.0975C81.1022 93.1047 82.2541 92.0552 83.3633 90.9491C83.918 90.396 84.4584 89.8287 84.9845 89.2615C85.5107 88.6801 86.0227 88.0986 86.5204 87.4888C87.0181 86.8931 87.5016 86.2691 87.9709 85.6451C88.1984 85.3331 88.4403 85.021 88.6677 84.6949C89.1229 84.0567 89.5637 83.4044 89.9761 82.752C90.1894 82.4258 90.3885 82.0854 90.6018 81.7593C91.6257 80.0858 92.5359 78.3415 93.3607 76.5545C96.1337 70.4421 97.6697 63.6632 97.6697 56.5156" fill="#3080C3"/>
<path d="M97.6554 42.7023V35.5547H76.2101C77.9025 37.7387 79.3246 40.1354 80.4622 42.7023H97.6696H97.6554Z" fill="#065BAA"/>
<path d="M69.3699 28.8468H97.6554V21.6992H48.8348V22.0962C56.5284 22.0962 63.6388 24.6065 69.3699 28.8468Z" fill="#065BAA"/>
<path d="M97.6554 7.85742H48.8348V15.0051H97.6554V7.85742Z" fill="#065BAA"/>
<path d="M48.8206 98.0537H0V105.201H48.8206V98.0537Z" fill="#3080C3"/>
<path d="M28.2286 84.1553H0V91.303H48.8206V90.9626C41.0986 90.9626 33.9597 88.4383 28.2144 84.1553" fill="#3080C3"/>
<path d="M0 70.2578V77.4054H21.3742C19.696 75.2073 18.274 72.8247 17.1647 70.2578H0Z" fill="#3080C3"/>
<path d="M14.3063 56.5293H0V63.521H15.0031C14.5339 61.2661 14.2921 58.926 14.2921 56.5293" fill="#3080C3"/>
<path d="M62.8851 56.5293C62.8851 56.5293 62.8851 56.5293 62.8851 56.5434H83.3348L62.8708 56.5293H62.8851Z" fill="#3080C3"/>
<mask id="mask0_29_887" style="mask-type:luminance" maskUnits="userSpaceOnUse" x="14" y="22" width="67" height="35">
<g opacity="0.5">
<path d="M14.3062 56.3736H35.1115C34.0733 54.9555 33.4619 53.2253 33.4619 51.3533V51.2824C33.4619 46.5599 37.3158 42.7165 42.0514 42.7165H48.8347H80.4621C79.3387 40.1638 77.9024 37.7671 76.2101 35.5689H48.8347V28.8608H69.3698C63.6245 24.6205 56.5283 22.1104 48.8347 22.1104C29.8213 22.1104 14.3916 37.4409 14.3062 56.3879" fill="white"/>
</g>
</mask>
<g mask="url(#mask0_29_887)">
<path d="M53.0085 -10.4062L-2.63202 36.3185L41.7484 88.877L97.3891 42.1523L53.0085 -10.4062Z" fill="url(#paint0_linear_29_887)"/>
</g>
<mask id="mask1_29_887" style="mask-type:luminance" maskUnits="userSpaceOnUse" x="40" y="49" width="44" height="8">
<g opacity="0.5">
<path d="M71.0336 49.3965V49.4674H42.0512C41.0558 49.4674 40.2452 50.2758 40.2452 51.2685V51.3394C40.2452 52.3321 41.0558 53.1405 42.0512 53.1405H56.0731C58.8605 53.1405 61.3207 54.4736 62.8993 56.53H83.3632C83.3632 54.0907 83.1072 51.7082 82.6236 49.3965H71.0479H71.0336Z" fill="white"/>
</g>
</mask>
<g mask="url(#mask1_29_887)">
<path d="M65.4723 28.2207L36.7219 52.3641L58.129 77.7159L86.8793 53.5725L65.4723 28.2207Z" fill="url(#paint1_linear_29_887)"/>
</g>
<path d="M62.8993 56.5439C63.9943 57.9763 64.6485 59.7632 64.6485 61.7061C64.6485 66.4287 60.7946 70.272 56.059 70.272H36.8465H17.1505C18.274 72.8247 19.6818 75.2214 21.3599 77.4196H48.8063V84.1702H28.2002C33.9455 88.4389 41.0843 90.9774 48.8063 90.9774C67.8767 90.9774 83.3206 75.5759 83.3349 56.5581H62.8851L62.8993 56.5439Z" fill="#065BAA"/>
<path d="M36.8607 63.5075H56.0732C57.0688 63.5075 57.8793 62.6991 57.8793 61.7064C57.8793 60.7137 57.0688 59.9053 56.0732 59.9053H42.0514C39.2783 59.9053 36.8039 58.5722 35.2396 56.53C35.1969 56.4733 35.1542 56.4308 35.1258 56.374H14.3206C14.3206 56.374 14.3206 56.4733 14.3206 56.53C14.3206 58.9268 14.5623 61.2526 15.0315 63.5216H36.875L36.8607 63.5075Z" fill="#065BAA"/>
<path d="M71.0338 49.3965H48.8348V49.4674H71.0338V49.3965Z" fill="#3080C3"/>
<path d="M42.0515 49.4674H48.8349V49.3965H82.6239C82.1261 47.0707 81.4009 44.83 80.4624 42.6885H48.8349H42.0515C37.3159 42.6885 33.462 46.5318 33.462 51.2543V51.3252C33.462 53.2114 34.0736 54.9416 35.1116 56.3456C35.1543 56.4024 35.1827 56.4449 35.2254 56.5016C36.7897 58.5438 39.2642 59.8769 42.0372 59.8769H56.0591C57.0546 59.8769 57.8652 60.6852 57.8652 61.678C57.8652 62.6707 57.0546 63.4791 56.0591 63.4791H48.8207H36.8466H15.0032C15.4867 65.8333 16.212 68.0882 17.1506 70.2297H48.8207H56.0591C60.7947 70.2297 64.6486 66.3863 64.6486 61.6638C64.6486 59.7209 63.9944 57.934 62.8994 56.5016C62.8994 56.5016 62.8994 56.5016 62.8994 56.4874C61.3351 54.4311 58.8606 53.1122 56.0734 53.1122H42.0515C41.056 53.1122 40.2454 52.3038 40.2454 51.3111V51.2402C40.2454 50.2475 41.056 49.4391 42.0515 49.4391" fill="#1D3666"/>
<path d="M77.4331 77.4053H21.374C23.3365 79.958 25.6261 82.2413 28.2143 84.1559H77.4189V77.4053H77.4331Z" fill="#3080C3"/>
<path d="M19.2551 35.5547H76.2101C74.2477 33.0161 71.9581 30.7612 69.3699 28.8467H19.2551V35.5547Z" fill="#065BAA"/>
</g>
<g opacity="0.5">
<path d="M187.538 45.9957C187.261 45.857 186.982 45.7296 186.705 45.5908C186.982 45.7181 187.261 45.857 187.538 45.9957Z" fill="#1D3666"/>
<path d="M190.408 47.6044C190.153 47.4425 189.898 47.292 189.632 47.1416C189.887 47.292 190.153 47.4425 190.408 47.6044Z" fill="#1D3666"/>
<path d="M186.045 45.2901C185.756 45.1628 185.467 45.0356 185.166 44.9082C185.455 45.0356 185.756 45.1513 186.045 45.2901Z" fill="#1D3666"/>
<path d="M194.435 50.4276C194.203 50.2425 193.971 50.0573 193.741 49.8838C193.971 50.0688 194.203 50.2425 194.435 50.4276Z" fill="#1D3666"/>
<path d="M193.139 49.4319C192.895 49.2583 192.665 49.0847 192.421 48.9111C192.665 49.0847 192.907 49.2583 193.139 49.4319Z" fill="#1D3666"/>
<path d="M181.382 43.5314C180.85 43.3693 180.306 43.2189 179.762 43.0801C180.306 43.2189 180.838 43.3693 181.382 43.5314Z" fill="#1D3666"/>
<path d="M195.696 51.481C195.476 51.2842 195.245 51.0875 195.013 50.9023C195.245 51.0875 195.464 51.2842 195.696 51.481Z" fill="#1D3666"/>
<path d="M191.797 48.4948C191.553 48.3328 191.299 48.1709 191.055 48.0088C191.31 48.1709 191.553 48.3328 191.797 48.4948Z" fill="#1D3666"/>
<path d="M201.678 58.0293C206.364 64.4861 209.118 72.4124 209.118 80.9983H189.934C201.644 80.8709 208.552 67.5525 201.678 58.0293Z" fill="#065BAA"/>
<path d="M150.534 19.5785C150.534 26.8221 154.467 33.1515 160.322 36.5419C157.442 38.2082 154.097 39.157 150.534 39.157C146.97 39.157 143.625 38.1966 140.744 36.5419C134.89 33.1515 130.955 26.8221 130.955 19.5785C130.955 12.3349 134.89 6.00547 140.744 2.6151C143.625 0.948841 146.97 0 150.534 0C154.097 0 157.442 0.948841 160.322 2.6151C154.479 6.00547 150.534 12.3349 150.534 19.5785Z" fill="#065BAA"/>
<path d="M129.45 47.916C129.207 48.0664 128.965 48.2284 128.722 48.3788C128.965 48.2169 129.207 48.0664 129.45 47.916Z" fill="#1D3666"/>
<path d="M138.476 43.6934C138.129 43.8091 137.782 43.9132 137.435 44.0405C137.782 43.9248 138.129 43.8091 138.476 43.6934Z" fill="#1D3666"/>
<path d="M135.26 44.8848C134.97 45.0005 134.681 45.1277 134.403 45.255C134.692 45.1277 134.982 45.012 135.26 44.8848Z" fill="#1D3666"/>
<path d="M140.594 43.0801C140.062 43.2189 139.529 43.3693 138.997 43.5314C139.529 43.3693 140.05 43.2189 140.594 43.0801Z" fill="#1D3666"/>
<path d="M132.274 46.2852C132.008 46.4239 131.753 46.5628 131.487 46.7017C131.742 46.5628 132.008 46.4239 132.274 46.2852Z" fill="#1D3666"/>
<path d="M130.851 47.0713C130.596 47.2217 130.341 47.3606 130.099 47.511C130.354 47.3606 130.596 47.2102 130.851 47.0713Z" fill="#1D3666"/>
<path d="M133.744 45.5557C133.465 45.6829 133.199 45.8103 132.922 45.9491C133.188 45.8103 133.465 45.6829 133.744 45.5557Z" fill="#1D3666"/>
<path d="M136.821 44.2715C136.509 44.3872 136.208 44.4913 135.896 44.6186C136.196 44.5029 136.509 44.3872 136.821 44.2715Z" fill="#1D3666"/>
<path d="M150.394 47.0835C147.374 45.3362 144.088 43.9708 140.617 43.0799C143.741 42.2814 147.016 41.8418 150.406 41.8418C153.797 41.8418 157.059 42.2699 160.196 43.0799C156.724 43.9708 153.438 45.3362 150.406 47.0835" fill="#1D3666"/>
<path d="M130.816 80.9989H111.238C111.238 72.2395 114.118 64.1511 118.99 57.625C111.909 67.2986 118.748 80.9989 130.816 80.9989Z" fill="#065BAA"/>
<path d="M160.311 36.5419C166.166 33.1515 170.1 26.8221 170.1 19.5785C170.1 12.3349 166.166 6.00547 160.311 2.6151C163.204 0.948841 166.536 0 170.111 0C173.688 0 177.02 0.948841 179.901 2.6151C185.756 6.00547 189.69 12.3349 189.69 19.5785C189.69 26.8221 185.756 33.1515 179.901 36.5419C177.02 38.2082 173.676 39.157 170.111 39.157C166.548 39.157 163.204 38.2082 160.323 36.5419H160.311Z" fill="#065BAA"/>
<path d="M170.111 19.5787C170.111 26.8223 166.178 33.1517 160.322 36.5421C154.479 33.1517 150.534 26.8223 150.534 19.5787C150.534 12.335 154.467 6.00561 160.322 2.61523C166.178 6.00561 170.111 12.335 170.111 19.5787Z" fill="#3080C3"/>
<path d="M160.253 43.0799C160.253 43.0799 160.23 43.0799 160.219 43.0799C160.219 43.0799 160.196 43.0799 160.184 43.0799C163.308 42.2814 166.594 41.8418 169.973 41.8418C173.352 41.8418 176.627 42.2699 179.762 43.0799C176.302 43.9708 173.028 45.3247 170.007 47.072C166.987 45.3247 163.713 43.9708 160.253 43.0799Z" fill="#1D3666"/>
<mask id="mask2_29_887" style="mask-type:luminance" maskUnits="userSpaceOnUse" x="191" y="48" width="2" height="1">
<g opacity="0.5">
<path d="M192.421 48.4951H191.797V48.9232H192.421V48.4951Z" fill="white"/>
</g>
</mask>
<g mask="url(#mask2_29_887)">
<path d="M192.41 48.9115C192.201 48.7726 192.004 48.6222 191.797 48.4834C192.004 48.6222 192.212 48.7611 192.41 48.9115Z" fill="#3080C3"/>
</g>
<mask id="mask3_29_887" style="mask-type:luminance" maskUnits="userSpaceOnUse" x="181" y="43" width="1" height="1">
<g opacity="0.5">
<path d="M181.914 43.5312H181.382V43.7048H181.914V43.5312Z" fill="white"/>
</g>
</mask>
<g mask="url(#mask3_29_887)">
<path d="M181.914 43.7048C181.74 43.647 181.555 43.5891 181.382 43.5312C181.567 43.5891 181.74 43.647 181.914 43.7048Z" fill="#3080C3"/>
</g>
<mask id="mask4_29_887" style="mask-type:luminance" maskUnits="userSpaceOnUse" x="188" y="46" width="2" height="2">
<g opacity="0.5">
<path d="M189.644 46.7705H188.996V47.1408H189.644V46.7705Z" fill="white"/>
</g>
</mask>
<g mask="url(#mask4_29_887)">
<path d="M189.644 47.1408C189.424 47.0136 189.216 46.8862 188.996 46.7705C189.216 46.8978 189.424 47.0136 189.644 47.1408Z" fill="#3080C3"/>
</g>
<mask id="mask5_29_887" style="mask-type:luminance" maskUnits="userSpaceOnUse" x="190" y="47" width="2" height="2">
<g opacity="0.5">
<path d="M191.044 47.6045H190.408V48.0095H191.044V47.6045Z" fill="white"/>
</g>
</mask>
<g mask="url(#mask5_29_887)">
<path d="M191.044 47.998C190.836 47.8591 190.628 47.7318 190.408 47.6045C190.616 47.7318 190.836 47.8706 191.044 47.998Z" fill="#3080C3"/>
</g>
<mask id="mask6_29_887" style="mask-type:luminance" maskUnits="userSpaceOnUse" x="193" y="49" width="1" height="1">
<g opacity="0.5">
<path d="M193.728 49.4316H193.127V49.8829H193.728V49.4316Z" fill="white"/>
</g>
</mask>
<g mask="url(#mask6_29_887)">
<path d="M193.728 49.8829C193.532 49.7325 193.335 49.5821 193.127 49.4316C193.324 49.5821 193.532 49.7325 193.728 49.8829Z" fill="#3080C3"/>
</g>
<mask id="mask7_29_887" style="mask-type:luminance" maskUnits="userSpaceOnUse" x="194" y="50" width="2" height="1">
<g opacity="0.5">
<path d="M195.013 50.4277H194.434V50.9022H195.013V50.4277Z" fill="white"/>
</g>
</mask>
<g mask="url(#mask7_29_887)">
<path d="M195.013 50.9022C194.817 50.7402 194.631 50.5898 194.434 50.4277C194.631 50.5782 194.828 50.7402 195.013 50.9022Z" fill="#3080C3"/>
</g>
<path d="M189.945 80.9989H189.586H189.551C189.551 66.5233 181.695 53.8759 170.007 47.1067C170.007 47.1067 170.03 47.0952 170.043 47.0836C170.03 47.0836 170.019 47.0721 170.007 47.0605C173.027 45.3132 176.302 43.9709 179.762 43.0684C180.306 43.2073 180.838 43.3577 181.382 43.5197C181.567 43.5776 181.74 43.6354 181.914 43.6933C182.261 43.809 182.62 43.9131 182.967 44.0404C183.176 44.1098 183.384 44.1908 183.592 44.2718C183.905 44.3875 184.217 44.5032 184.53 44.6305C184.749 44.7231 184.958 44.8156 185.177 44.9083C185.466 45.0355 185.768 45.1512 186.057 45.2901C186.277 45.3943 186.497 45.4983 186.716 45.6025C186.995 45.7298 187.272 45.8686 187.55 46.0075C187.769 46.1232 187.989 46.239 188.209 46.3547C188.475 46.4934 188.741 46.6323 189.007 46.7828C189.228 46.8985 189.436 47.0257 189.656 47.1531C189.91 47.3035 190.176 47.4539 190.43 47.6159C190.639 47.7432 190.859 47.8821 191.067 48.0093C191.31 48.1713 191.565 48.3333 191.808 48.4953C192.016 48.6342 192.225 48.773 192.433 48.9234C192.676 49.097 192.918 49.2706 193.15 49.4442C193.347 49.5946 193.556 49.745 193.752 49.8955C193.983 50.0806 194.215 50.2541 194.446 50.4393C194.643 50.5897 194.839 50.7517 195.024 50.9137C195.256 51.1105 195.476 51.2955 195.707 51.4923C195.893 51.6543 196.078 51.8162 196.263 51.9782C196.483 52.175 196.702 52.3832 196.922 52.5915C197.095 52.7651 197.281 52.9271 197.454 53.1007C197.674 53.3206 197.882 53.5288 198.091 53.7487C198.252 53.9222 198.426 54.0958 198.588 54.2694C198.797 54.5008 199.005 54.7322 199.213 54.9637C199.364 55.1372 199.526 55.3108 199.676 55.4843C199.885 55.7273 200.093 55.982 200.289 56.2249C200.428 56.3984 200.579 56.572 200.717 56.7456C200.938 57.0233 201.146 57.301 201.354 57.5787C201.47 57.7291 201.585 57.8795 201.701 58.0416C208.586 67.5647 201.678 80.8832 189.956 80.9989" fill="#1D3666"/>
<path d="M189.945 80.9989H189.586H189.551C189.551 66.5233 181.695 53.8759 170.007 47.1067C170.007 47.1067 170.03 47.0952 170.043 47.0836C170.03 47.0836 170.019 47.0721 170.007 47.0605C173.027 45.3132 176.302 43.9709 179.762 43.0684C180.306 43.2073 180.838 43.3577 181.382 43.5197C181.567 43.5776 181.74 43.6354 181.914 43.6933C182.261 43.809 182.62 43.9131 182.967 44.0404C183.176 44.1098 183.384 44.1908 183.592 44.2718C183.905 44.3875 184.217 44.5032 184.53 44.6305C184.749 44.7231 184.958 44.8156 185.177 44.9083C185.466 45.0355 185.768 45.1512 186.057 45.2901C186.277 45.3943 186.497 45.4983 186.716 45.6025C186.995 45.7298 187.272 45.8686 187.55 46.0075C187.769 46.1232 187.989 46.239 188.209 46.3547C188.475 46.4934 188.741 46.6323 189.007 46.7828C189.228 46.8985 189.436 47.0257 189.656 47.1531C189.91 47.3035 190.176 47.4539 190.43 47.6159C190.639 47.7432 190.859 47.8821 191.067 48.0093C191.31 48.1713 191.565 48.3333 191.808 48.4953C192.016 48.6342 192.225 48.773 192.433 48.9234C192.676 49.097 192.918 49.2706 193.15 49.4442C193.347 49.5946 193.556 49.745 193.752 49.8955C193.983 50.0806 194.215 50.2541 194.446 50.4393C194.643 50.5897 194.839 50.7517 195.024 50.9137C195.256 51.1105 195.476 51.2955 195.707 51.4923C195.893 51.6543 196.078 51.8162 196.263 51.9782C196.483 52.175 196.702 52.3832 196.922 52.5915C197.095 52.7651 197.281 52.9271 197.454 53.1007C197.674 53.3206 197.882 53.5288 198.091 53.7487C198.252 53.9222 198.426 54.0958 198.588 54.2694C198.797 54.5008 199.005 54.7322 199.213 54.9637C199.364 55.1372 199.526 55.3108 199.676 55.4843C199.885 55.7273 200.093 55.982 200.289 56.2249C200.428 56.3984 200.579 56.572 200.717 56.7456C200.938 57.0233 201.146 57.301 201.354 57.5787C201.47 57.7291 201.585 57.8795 201.701 58.0416C208.586 67.5647 201.678 80.8832 189.956 80.9989" fill="#3080C3"/>
<path d="M160.183 43.0801C160.183 43.0801 160.207 43.0801 160.219 43.0801C156.759 43.9826 153.484 45.3364 150.453 47.0837C154.132 49.2012 157.418 51.9089 160.207 55.0679C160.195 55.0794 160.183 55.091 160.172 55.1025C157.372 51.932 154.075 49.2128 150.383 47.0837C153.414 45.3364 156.701 43.971 160.172 43.0801H160.183Z" fill="#1D3666"/>
<mask id="mask8_29_887" style="mask-type:luminance" maskUnits="userSpaceOnUse" x="150" y="43" width="11" height="13">
<g opacity="0.5">
<path d="M160.219 43.0801H150.394V55.1025H160.219V43.0801Z" fill="white"/>
</g>
</mask>
<g mask="url(#mask8_29_887)">
<path d="M160.183 43.0801C160.183 43.0801 160.207 43.0801 160.219 43.0801C156.759 43.9826 153.484 45.3364 150.453 47.0837C154.132 49.2012 157.418 51.9089 160.207 55.0679C160.195 55.0794 160.183 55.091 160.172 55.1025C157.372 51.932 154.075 49.2128 150.383 47.0837C153.414 45.3364 156.701 43.971 160.172 43.0801H160.183Z" fill="#3080C3"/>
</g>
<path d="M160.253 55.1022C163.042 51.9316 166.34 49.2239 170.007 47.1064C181.695 53.8755 189.551 66.5229 189.551 80.9986H170.043C170.043 71.0704 166.34 62.0102 160.253 55.1022C160.241 55.1137 160.23 55.1253 160.219 55.1369C160.219 55.1253 160.196 55.1137 160.184 55.1022C160.196 55.0905 160.207 55.079 160.219 55.0675C160.23 55.079 160.241 55.0905 160.253 55.1022Z" fill="#1D3666"/>
<path d="M160.253 55.1022C163.042 51.9316 166.34 49.2239 170.007 47.1064C181.695 53.8755 189.551 66.5229 189.551 80.9986H170.043C170.043 71.0704 166.34 62.0102 160.253 55.1022C160.241 55.1137 160.23 55.1253 160.219 55.1369C160.219 55.1253 160.196 55.1137 160.184 55.1022C160.196 55.0905 160.207 55.079 160.219 55.0675C160.23 55.079 160.241 55.0905 160.253 55.1022Z" fill="#065BAA"/>
<mask id="mask9_29_887" style="mask-type:luminance" maskUnits="userSpaceOnUse" x="129" y="47" width="2" height="1">
<g opacity="0.5">
<path d="M130.087 47.5117H129.45V47.9167H130.087V47.5117Z" fill="white"/>
</g>
</mask>
<g mask="url(#mask9_29_887)">
<path d="M130.087 47.5117C129.879 47.6391 129.659 47.7779 129.45 47.9167C129.659 47.7779 129.867 47.6506 130.087 47.5117Z" fill="#3080C3"/>
</g>
<mask id="mask10_29_887" style="mask-type:luminance" maskUnits="userSpaceOnUse" x="135" y="44" width="1" height="1">
<g opacity="0.5">
<path d="M135.907 44.6074H135.26V44.8736H135.907V44.6074Z" fill="white"/>
</g>
</mask>
<g mask="url(#mask10_29_887)">
<path d="M135.907 44.6074C135.688 44.7001 135.479 44.7926 135.26 44.8736C135.468 44.781 135.688 44.6884 135.907 44.6074Z" fill="#3080C3"/>
</g>
<mask id="mask11_29_887" style="mask-type:luminance" maskUnits="userSpaceOnUse" x="133" y="45" width="2" height="1">
<g opacity="0.5">
<path d="M134.392 45.2432H133.743V45.5556H134.392V45.2432Z" fill="white"/>
</g>
</mask>
<g mask="url(#mask11_29_887)">
<path d="M134.403 45.2539C134.183 45.3581 133.963 45.4622 133.754 45.5663C133.975 45.4622 134.183 45.3581 134.403 45.2539Z" fill="#3080C3"/>
</g>
<mask id="mask12_29_887" style="mask-type:luminance" maskUnits="userSpaceOnUse" x="132" y="45" width="1" height="2">
<g opacity="0.5">
<path d="M132.934 45.9492H132.274V46.2848H132.934V45.9492Z" fill="white"/>
</g>
</mask>
<g mask="url(#mask12_29_887)">
<path d="M132.933 45.9492C132.714 46.0649 132.493 46.1806 132.285 46.2848C132.506 46.1691 132.714 46.0534 132.933 45.9492Z" fill="#3080C3"/>
</g>
<path d="M118.99 57.6251C119.106 57.4631 119.233 57.3011 119.349 57.1507C119.522 56.9308 119.696 56.711 119.869 56.4911C120.032 56.2944 120.194 56.0977 120.356 55.9009C120.541 55.6812 120.715 55.4728 120.9 55.2646C121.062 55.0678 121.235 54.8827 121.409 54.6859C121.594 54.4777 121.791 54.2695 121.987 54.0727C122.161 53.8876 122.334 53.7025 122.519 53.5173C122.716 53.3206 122.913 53.1238 123.121 52.9271C123.306 52.7536 123.491 52.5685 123.676 52.3949C123.885 52.1982 124.093 52.013 124.301 51.8279C124.486 51.6543 124.684 51.4924 124.869 51.3188C125.088 51.1336 125.296 50.9485 125.517 50.7749C125.713 50.613 125.91 50.4509 126.107 50.3005C126.326 50.127 126.558 49.9533 126.789 49.7798C126.986 49.6294 127.194 49.479 127.391 49.3285C127.623 49.1666 127.854 48.993 128.097 48.831C128.305 48.6921 128.514 48.5417 128.722 48.4029C128.965 48.2408 129.207 48.0904 129.45 47.9399C129.659 47.8011 129.867 47.6738 130.087 47.535C130.341 47.3846 130.585 47.2341 130.839 47.0953C131.059 46.968 131.268 46.8408 131.487 46.7249C131.742 46.5862 132.008 46.4473 132.274 46.3085C132.494 46.1927 132.702 46.077 132.922 45.9729C133.188 45.834 133.465 45.7068 133.744 45.5794C133.963 45.4753 134.184 45.3712 134.403 45.267C134.692 45.1397 134.97 45.024 135.26 44.8967C135.468 44.8042 135.688 44.7116 135.907 44.6306C136.208 44.5148 136.521 44.3991 136.833 44.2834C137.042 44.2141 137.238 44.133 137.446 44.052C137.793 43.9248 138.14 43.8206 138.488 43.7049C138.661 43.6471 138.835 43.5892 139.009 43.5314C139.541 43.3693 140.062 43.2189 140.605 43.0801H140.617C144.088 43.971 147.374 45.3364 150.394 47.0837C138.696 53.8529 130.816 66.5118 130.816 80.9989C118.759 80.9989 111.909 67.2987 118.99 57.6251Z" fill="#1D3666"/>
<path d="M118.99 57.6251C119.106 57.4631 119.233 57.3011 119.349 57.1507C119.522 56.9308 119.696 56.711 119.869 56.4911C120.032 56.2944 120.194 56.0977 120.356 55.9009C120.541 55.6812 120.715 55.4728 120.9 55.2646C121.062 55.0678 121.235 54.8827 121.409 54.6859C121.594 54.4777 121.791 54.2695 121.987 54.0727C122.161 53.8876 122.334 53.7025 122.519 53.5173C122.716 53.3206 122.913 53.1238 123.121 52.9271C123.306 52.7536 123.491 52.5685 123.676 52.3949C123.885 52.1982 124.093 52.013 124.301 51.8279C124.486 51.6543 124.684 51.4924 124.869 51.3188C125.088 51.1336 125.296 50.9485 125.517 50.7749C125.713 50.613 125.91 50.4509 126.107 50.3005C126.326 50.127 126.558 49.9533 126.789 49.7798C126.986 49.6294 127.194 49.479 127.391 49.3285C127.623 49.1666 127.854 48.993 128.097 48.831C128.305 48.6921 128.514 48.5417 128.722 48.4029C128.965 48.2408 129.207 48.0904 129.45 47.9399C129.659 47.8011 129.867 47.6738 130.087 47.535C130.341 47.3846 130.585 47.2341 130.839 47.0953C131.059 46.968 131.268 46.8408 131.487 46.7249C131.742 46.5862 132.008 46.4473 132.274 46.3085C132.494 46.1927 132.702 46.077 132.922 45.9729C133.188 45.834 133.465 45.7068 133.744 45.5794C133.963 45.4753 134.184 45.3712 134.403 45.267C134.692 45.1397 134.97 45.024 135.26 44.8967C135.468 44.8042 135.688 44.7116 135.907 44.6306C136.208 44.5148 136.521 44.3991 136.833 44.2834C137.042 44.2141 137.238 44.133 137.446 44.052C137.793 43.9248 138.14 43.8206 138.488 43.7049C138.661 43.6471 138.835 43.5892 139.009 43.5314C139.541 43.3693 140.062 43.2189 140.605 43.0801H140.617C144.088 43.971 147.374 45.3364 150.394 47.0837C138.696 53.8529 130.816 66.5118 130.816 80.9989C118.759 80.9989 111.909 67.2987 118.99 57.6251Z" fill="#3080C3"/>
<path d="M150.394 47.083C154.086 49.212 157.384 51.9313 160.184 55.1018C154.097 61.9983 150.394 71.0701 150.394 80.9982H130.816C130.816 66.5111 138.684 53.8521 150.394 47.083Z" fill="#1D3666"/>
<path d="M150.394 47.083C154.086 49.212 157.384 51.9313 160.184 55.1018C154.097 61.9983 150.394 71.0701 150.394 80.9982H130.816C130.816 66.5111 138.684 53.8521 150.394 47.083Z" fill="#065BAA"/>
<path d="M150.464 80.999H150.394C150.394 71.0825 154.086 62.0106 160.183 55.1025C160.196 55.1142 160.207 55.1257 160.219 55.1373C154.143 62.0337 150.464 71.0825 150.464 80.9874" fill="#1D3666"/>
<path d="M150.464 80.999H150.394C150.394 71.0825 154.086 62.0106 160.183 55.1025C160.196 55.1142 160.207 55.1257 160.219 55.1373C154.143 62.0337 150.464 71.0825 150.464 80.9874" fill="#1D3666"/>
<mask id="mask13_29_887" style="mask-type:luminance" maskUnits="userSpaceOnUse" x="150" y="55" width="11" height="26">
<g opacity="0.5">
<path d="M160.207 55.1025H150.394V80.999H160.207V55.1025Z" fill="white"/>
</g>
</mask>
<g mask="url(#mask13_29_887)">
<path d="M150.464 80.999H150.394C150.394 71.0825 154.086 62.0106 160.183 55.1025C160.196 55.1142 160.207 55.1257 160.219 55.1373C154.143 62.0337 150.464 71.0825 150.464 80.9874" fill="#3080C3"/>
<path d="M150.464 80.999H150.394C150.394 71.0825 154.086 62.0106 160.183 55.1025C160.196 55.1142 160.207 55.1257 160.219 55.1373C154.143 62.0337 150.464 71.0825 150.464 80.9874" fill="#3080C3"/>
</g>
<path d="M189.575 80.999V85.6738C189.575 96.4697 198.322 105.217 209.118 105.217H194.249C180.873 105.217 170.031 94.3753 170.031 80.999H189.575Z" fill="#065BAA"/>
<path d="M130.816 85.6846V81.0098H150.36C150.36 94.3861 139.518 105.229 126.141 105.229H111.272C122.068 105.229 130.816 96.4805 130.816 85.6846Z" fill="#065BAA"/>
<mask id="mask14_29_887" style="mask-type:luminance" maskUnits="userSpaceOnUse" x="150" y="80" width="21" height="2">
<g opacity="0.5">
<path d="M150.464 81.0106H170.03V80.999L150.464 81.0106Z" fill="white"/>
</g>
</mask>
<g mask="url(#mask14_29_887)">
<path d="M150.652 79.0576L150.458 81.0034L169.835 82.941L170.029 80.9951L150.652 79.0576Z" fill="url(#paint2_linear_29_887)"/>
</g>
<mask id="mask15_29_887" style="mask-type:luminance" maskUnits="userSpaceOnUse" x="150" y="81" width="21" height="25">
<g opacity="0.5">
<path d="M150.464 81.0098C150.464 90.2899 154.156 98.7717 160.253 105.229C166.34 98.7717 170.043 90.3015 170.043 81.0098H170.03H150.464Z" fill="white"/>
</g>
</mask>
<g mask="url(#mask15_29_887)">
<path d="M150.459 80.7168L150.087 105.222L170.022 105.525L170.394 81.0195L150.459 80.7168Z" fill="url(#paint3_linear_29_887)"/>
</g>
<path d="M160.241 55.1025C166.328 61.999 170.03 71.0709 170.03 80.999H169.962C169.962 71.094 166.27 62.0454 160.207 55.1489C160.207 55.1373 160.23 55.1257 160.241 55.1142" fill="#1D3666"/>
<path d="M160.241 55.1025C166.328 61.999 170.03 71.0709 170.03 80.999H169.962C169.962 71.094 166.27 62.0454 160.207 55.1489C160.207 55.1373 160.23 55.1257 160.241 55.1142" fill="#1D3666"/>
<mask id="mask16_29_887" style="mask-type:luminance" maskUnits="userSpaceOnUse" x="160" y="55" width="11" height="26">
<g opacity="0.5">
<path d="M170.043 55.1025H160.219V80.999H170.043V55.1025Z" fill="white"/>
</g>
</mask>
<g mask="url(#mask16_29_887)">
<path d="M160.242 55.1025C166.328 61.999 170.031 71.0709 170.031 80.999H169.962C169.962 71.094 166.271 62.0454 160.207 55.1489C160.207 55.1373 160.23 55.1257 160.242 55.1142" fill="#3080C3"/>
</g>
<mask id="mask17_29_887" style="mask-type:luminance" maskUnits="userSpaceOnUse" x="160" y="55" width="11" height="26">
<g opacity="0.5">
<path d="M160.219 55.1371C166.293 62.0335 169.973 71.0823 169.973 80.9872H170.03C170.03 71.0591 166.328 61.9988 160.241 55.0908C160.241 55.1024 160.219 55.114 160.207 55.1255" fill="white"/>
</g>
</mask>
<g mask="url(#mask17_29_887)">
<path d="M166.56 50.4072L147.834 64.2591L163.688 85.6928L182.414 71.8408L166.56 50.4072Z" fill="url(#paint4_linear_29_887)"/>
</g>
<path d="M169.973 80.9985H150.464C150.464 71.0935 154.143 62.0449 160.219 55.1484C166.293 62.0449 169.973 71.0935 169.973 80.9985Z" fill="#1D3666"/>
<path d="M169.973 80.9985H150.464C150.464 71.0935 154.143 62.0449 160.219 55.1484C166.293 62.0449 169.973 71.0935 169.973 80.9985Z" fill="#1D3666"/>
<mask id="mask18_29_887" style="mask-type:luminance" maskUnits="userSpaceOnUse" x="150" y="55" width="20" height="26">
<g opacity="0.5">
<path d="M169.973 55.1367H150.464V80.9868H169.973V55.1367Z" fill="white"/>
</g>
</mask>
<g mask="url(#mask18_29_887)">
<path d="M169.973 80.9985H150.464C150.464 71.0935 154.144 62.0449 160.219 55.1484C166.293 62.0449 169.973 71.0935 169.973 80.9985Z" fill="#3080C3"/>
<path d="M169.973 80.9985H150.464C150.464 71.0935 154.144 62.0449 160.219 55.1484C166.293 62.0449 169.973 71.0935 169.973 80.9985Z" fill="#3080C3"/>
</g>
<mask id="mask19_29_887" style="mask-type:luminance" maskUnits="userSpaceOnUse" x="150" y="55" width="20" height="26">
<g opacity="0.5">
<path d="M150.464 80.9985H169.973C169.973 71.0935 166.282 62.0449 160.219 55.1484C154.143 62.0449 150.464 71.0935 150.464 80.9985Z" fill="white"/>
</g>
</mask>
<g mask="url(#mask19_29_887)">
<path d="M150.462 54.835L150.065 80.9829L169.966 81.2851L170.362 55.1371L150.462 54.835Z" fill="url(#paint5_linear_29_887)"/>
</g>
<mask id="mask20_29_887" style="mask-type:luminance" maskUnits="userSpaceOnUse" x="160" y="43" width="11" height="5">
<g opacity="0.5">
<path d="M170.007 43.0801H160.219V47.0837H170.007V43.0801Z" fill="white"/>
</g>
</mask>
<g mask="url(#mask20_29_887)">
<path d="M160.219 43.0801C160.219 43.0801 160.241 43.0801 160.253 43.0801C163.713 43.971 166.987 45.3249 170.007 47.0722C170.007 47.0722 169.985 47.0837 169.973 47.0953C166.953 45.348 163.678 43.9942 160.219 43.0916" fill="#3080C3"/>
</g>
<mask id="mask21_29_887" style="mask-type:luminance" maskUnits="userSpaceOnUse" x="160" y="43" width="11" height="5">
<g opacity="0.5">
<path d="M160.253 43.08C160.253 43.08 160.23 43.08 160.219 43.08C163.678 43.9825 166.953 45.3364 169.973 47.0836C169.985 47.0836 169.996 47.0721 170.007 47.0605C166.987 45.3132 163.713 43.9709 160.253 43.0684V43.08Z" fill="white"/>
</g>
</mask>
<g mask="url(#mask21_29_887)">
<path d="M170.007 43.0801H160.219V47.0837H170.007V43.0801Z" fill="url(#paint6_linear_29_887)"/>
</g>
<path d="M170.007 47.0605C170.007 47.0605 170.03 47.072 170.042 47.0834C170.03 47.0834 170.019 47.0947 170.007 47.1062C169.996 47.1062 169.985 47.0947 169.973 47.0834C169.985 47.0834 169.996 47.072 170.007 47.0605Z" fill="#1D3666"/>
<mask id="mask22_29_887" style="mask-type:luminance" maskUnits="userSpaceOnUse" x="169" y="47" width="2" height="1">
<g opacity="0.5">
<path d="M170.042 47.0605H169.973V47.0948H170.042V47.0605Z" fill="white"/>
</g>
</mask>
<g mask="url(#mask22_29_887)">
<path d="M170.007 47.0605C170.007 47.0605 170.03 47.072 170.042 47.0834C170.03 47.0834 170.019 47.0947 170.007 47.1062C169.996 47.1062 169.985 47.0947 169.973 47.0834C169.985 47.0834 169.996 47.072 170.007 47.0605Z" fill="#3080C3"/>
</g>
<mask id="mask23_29_887" style="mask-type:luminance" maskUnits="userSpaceOnUse" x="169" y="47" width="2" height="1">
<g opacity="0.5">
<path d="M169.973 47.0834C169.973 47.0834 169.996 47.0947 170.007 47.1062C170.007 47.1062 170.03 47.0947 170.042 47.0834C170.03 47.0834 170.019 47.072 170.007 47.0605C169.996 47.0605 169.985 47.072 169.973 47.0834Z" fill="white"/>
</g>
</mask>
<g mask="url(#mask23_29_887)">
<path d="M170.042 47.0605H169.973V47.0948H170.042V47.0605Z" fill="url(#paint7_linear_29_887)"/>
</g>
<path d="M160.219 55.067C157.429 51.908 154.132 49.2119 150.464 47.0828C153.484 45.3356 156.759 43.9818 160.219 43.0908C163.678 43.9818 166.953 45.3356 169.973 47.0828C166.293 49.2119 163.007 51.908 160.219 55.067Z" fill="#1D3666"/>
<mask id="mask24_29_887" style="mask-type:luminance" maskUnits="userSpaceOnUse" x="150" y="43" width="20" height="13">
<g opacity="0.5">
<path d="M169.962 43.0801H150.453V55.0679H169.962V43.0801Z" fill="white"/>
</g>
</mask>
<g mask="url(#mask24_29_887)">
<path d="M160.219 55.068C157.429 51.909 154.132 49.2129 150.464 47.0838C153.484 45.3366 156.759 43.9827 160.219 43.0918C163.678 43.9827 166.953 45.3366 169.973 47.0838C166.293 49.2129 163.007 51.909 160.219 55.068Z" fill="#3080C3"/>
</g>
<mask id="mask25_29_887" style="mask-type:luminance" maskUnits="userSpaceOnUse" x="150" y="43" width="20" height="13">
<g opacity="0.5">
<path d="M150.453 47.0837C154.132 49.2012 157.418 51.9089 160.207 55.0679C162.995 51.9089 166.293 49.2128 169.962 47.0837C166.942 45.3364 163.667 43.9826 160.207 43.0801C156.747 43.9826 153.473 45.3364 150.441 47.0837" fill="white"/>
</g>
</mask>
<g mask="url(#mask25_29_887)">
<path d="M169.973 43.0801H150.453V55.0679H169.973V43.0801Z" fill="url(#paint8_linear_29_887)"/>
</g>
<path d="M160.253 55.1018C160.253 55.1018 160.23 55.0786 160.219 55.0671C163.007 51.9081 166.305 49.212 169.973 47.083C169.985 47.083 169.996 47.0945 170.007 47.1061C166.328 49.2352 163.042 51.9429 160.253 55.1018Z" fill="#1D3666"/>
<path d="M160.253 55.1018C160.253 55.1018 160.23 55.0786 160.219 55.0671C163.007 51.9081 166.305 49.212 169.973 47.083C169.985 47.083 169.996 47.0945 170.007 47.1061C166.328 49.2352 163.042 51.9429 160.253 55.1018Z" fill="#1D3666"/>
<mask id="mask26_29_887" style="mask-type:luminance" maskUnits="userSpaceOnUse" x="160" y="47" width="11" height="9">
<g opacity="0.5">
<path d="M170.007 47.083H160.219V55.1018H170.007V47.083Z" fill="white"/>
</g>
</mask>
<g mask="url(#mask26_29_887)">
<path d="M160.253 55.1018C160.253 55.1018 160.23 55.0786 160.219 55.0671C163.007 51.9081 166.305 49.212 169.973 47.083C169.985 47.083 169.996 47.0945 170.007 47.1061C166.328 49.2352 163.042 51.9429 160.253 55.1018Z" fill="#3080C3"/>
</g>
<mask id="mask27_29_887" style="mask-type:luminance" maskUnits="userSpaceOnUse" x="160" y="47" width="11" height="9">
<g opacity="0.5">
<path d="M160.219 55.0671C160.219 55.0671 160.241 55.0903 160.253 55.1018C163.042 51.9313 166.34 49.2352 170.007 47.1061C169.996 47.1061 169.985 47.0945 169.973 47.083C166.293 49.2005 163.007 51.9081 160.219 55.0671Z" fill="white"/>
</g>
</mask>
<g mask="url(#mask27_29_887)">
<path d="M170.007 47.083H160.219V55.1018H170.007V47.083Z" fill="url(#paint9_linear_29_887)"/>
</g>
<path d="M130.816 80.999H111.272V105.217C122.068 105.217 130.816 96.4697 130.816 85.6738V80.999Z" fill="#3080C3"/>
<path d="M209.13 105.229V81.0098H189.586V85.6846C189.586 96.4805 198.334 105.229 209.13 105.229Z" fill="#3080C3"/>
</g>
</g>
<defs>
<linearGradient id="paint0_linear_29_887" x1="-20.1259" y1="-39.1037" x2="57.0364" y2="52.7822" gradientUnits="userSpaceOnUse">
<stop stop-color="#79653F"/>
<stop offset="0.41" stop-color="#79653F"/>
<stop offset="0.51" stop-color="#87734C"/>
<stop offset="0.71" stop-color="#AD996E"/>
<stop offset="0.98" stop-color="#EAD5A6"/>
<stop offset="1" stop-color="#F0DBAB"/>
</linearGradient>
<linearGradient id="paint1_linear_29_887" x1="-18.2627" y1="-40.7064" x2="58.8995" y2="51.1794" gradientUnits="userSpaceOnUse">
<stop stop-color="#79653F"/>
<stop offset="0.41" stop-color="#79653F"/>
<stop offset="0.51" stop-color="#87734C"/>
<stop offset="0.71" stop-color="#AD996E"/>
<stop offset="0.98" stop-color="#EAD5A6"/>
<stop offset="1" stop-color="#F0DBAB"/>
</linearGradient>
<linearGradient id="paint2_linear_29_887" x1="166.515" y1="60.7316" x2="162.722" y2="98.6771" gradientUnits="userSpaceOnUse">
<stop stop-color="#7D6438"/>
<stop offset="0.21" stop-color="#7D6438"/>
<stop offset="0.35" stop-color="#8B7244"/>
<stop offset="0.6" stop-color="#B19766"/>
<stop offset="0.95" stop-color="#EED29D"/>
<stop offset="1" stop-color="#F7DBA5"/>
</linearGradient>
<linearGradient id="paint3_linear_29_887" x1="161.362" y1="18.8534" x2="160.013" y2="107.751" gradientUnits="userSpaceOnUse">
<stop stop-color="#7D6438"/>
<stop offset="0.21" stop-color="#7D6438"/>
<stop offset="0.35" stop-color="#8B7244"/>
<stop offset="0.6" stop-color="#B19766"/>
<stop offset="0.95" stop-color="#EED29D"/>
<stop offset="1" stop-color="#F7DBA5"/>
</linearGradient>
<linearGradient id="paint4_linear_29_887" x1="168.799" y1="62.2733" x2="147.379" y2="78.1173" gradientUnits="userSpaceOnUse">
<stop stop-color="#7D6438"/>
<stop offset="0.21" stop-color="#7D6438"/>
<stop offset="0.35" stop-color="#8B7244"/>
<stop offset="0.6" stop-color="#B19766"/>
<stop offset="0.95" stop-color="#EED29D"/>
<stop offset="1" stop-color="#F7DBA5"/>
</linearGradient>
<linearGradient id="paint5_linear_29_887" x1="160.535" y1="18.7195" x2="159.185" y2="107.616" gradientUnits="userSpaceOnUse">
<stop stop-color="#7D6438"/>
<stop offset="0.21" stop-color="#7D6438"/>
<stop offset="0.35" stop-color="#8B7244"/>
<stop offset="0.6" stop-color="#B19766"/>
<stop offset="0.95" stop-color="#EED29D"/>
<stop offset="1" stop-color="#F7DBA5"/>
</linearGradient>
<linearGradient id="paint6_linear_29_887" x1="165.291" y1="38.0848" x2="165.291" y2="54" gradientUnits="userSpaceOnUse">
<stop stop-color="#7D6438"/>
<stop offset="0.24" stop-color="#7D6438"/>
<stop offset="0.34" stop-color="#8B7244"/>
<stop offset="0.55" stop-color="#B19766"/>
<stop offset="0.84" stop-color="#EED29D"/>
<stop offset="0.88" stop-color="#F7DBA5"/>
<stop offset="1" stop-color="#F7DBA5"/>
</linearGradient>
<linearGradient id="paint7_linear_29_887" x1="170.144" y1="38.213" x2="170.144" y2="53.9008" gradientUnits="userSpaceOnUse">
<stop stop-color="#7D6438"/>
<stop offset="0.24" stop-color="#7D6438"/>
<stop offset="0.34" stop-color="#8B7244"/>
<stop offset="0.55" stop-color="#B19766"/>
<stop offset="0.84" stop-color="#EED29D"/>
<stop offset="0.88" stop-color="#F7DBA5"/>
<stop offset="1" stop-color="#F7DBA5"/>
</linearGradient>
<linearGradient id="paint8_linear_29_887" x1="160.435" y1="38.0848" x2="160.435" y2="53.9999" gradientUnits="userSpaceOnUse">
<stop stop-color="#7D6438"/>
<stop offset="0.24" stop-color="#7D6438"/>
<stop offset="0.34" stop-color="#8B7244"/>
<stop offset="0.55" stop-color="#B19766"/>
<stop offset="0.84" stop-color="#EED29D"/>
<stop offset="0.88" stop-color="#F7DBA5"/>
<stop offset="1" stop-color="#F7DBA5"/>
</linearGradient>
<linearGradient id="paint9_linear_29_887" x1="165.291" y1="38.0841" x2="165.291" y2="53.9992" gradientUnits="userSpaceOnUse">
<stop stop-color="#7D6438"/>
<stop offset="0.24" stop-color="#7D6438"/>
<stop offset="0.34" stop-color="#8B7244"/>
<stop offset="0.55" stop-color="#B19766"/>
<stop offset="0.84" stop-color="#EED29D"/>
<stop offset="0.88" stop-color="#F7DBA5"/>
<stop offset="1" stop-color="#F7DBA5"/>
</linearGradient>
<clipPath id="clip0_29_887">
<rect width="210" height="106.04" fill="white"/>
</clipPath>
</defs>
</svg>
