<svg width="46" height="54" viewBox="0 0 46 54" fill="none" xmlns="http://www.w3.org/2000/svg">
<g clip-path="url(#clip0_44_1649)">
<path d="M30.1556 25.2966C30.1556 24.6151 29.7296 24.104 29.1333 23.9336C29.0482 23.9336 29.0482 23.9336 28.963 23.9336C28.963 23.9336 28.963 23.9336 28.8778 23.9336C28.5371 23.9336 28.2815 24.1891 28.2815 24.5299V25.4669V25.8077V26.2336V26.6595V27.4262V27.8521V28.0225V28.6188V28.704V28.8743V29.4706V29.5558C28.2815 29.5558 28.2815 29.641 28.3667 29.641L28.4519 29.7262C28.5371 29.7262 28.537 29.8114 28.6222 29.8114H28.7926C29.4741 29.7262 30.0704 29.1299 30.0704 28.4484C30.0704 27.6817 29.5593 27.0854 28.7926 27.0854V26.404C29.5593 26.5743 30.1556 25.978 30.1556 25.2966Z" fill="#0061AE"/>
<path d="M25.7259 23.8486C25.3852 23.8486 25.1296 24.1042 25.1296 24.4449V29.4709C25.1296 29.8116 25.3852 30.0672 25.7259 30.0672C26.0667 30.0672 26.3222 29.8116 26.3222 29.4709V24.4449C26.3222 24.1894 26.0667 23.8486 25.7259 23.8486Z" fill="#0061AE"/>
<g opacity="0.1">
<path d="M23 50C16.8667 50 11.0741 47.6148 6.72963 43.2704C2.47037 38.9259 0 33.1333 0 27C0 20.8667 2.38519 15.0741 6.72963 10.7296C11.0741 6.47037 16.8667 4 23 4C29.1333 4 34.9259 6.38519 39.2704 10.7296C48.2148 19.6741 48.2148 34.2407 39.2704 43.1852C34.9259 47.5296 29.1333 50 23 50ZM23 9.28148C18.2296 9.28148 13.8 11.1556 10.4778 14.4778C7.07037 17.8 5.1963 22.2296 5.1963 27C5.1963 31.7704 7.07037 36.2 10.3926 39.5222C13.7148 42.8444 18.2296 44.7185 22.9148 44.7185C27.6852 44.7185 32.1148 42.8444 35.437 39.5222C42.337 32.6222 42.337 21.2926 35.437 14.3926C32.2 11.0704 27.7704 9.28148 23 9.28148Z" fill="#EDF5FB"/>
</g>
<path d="M17.7185 26.7449H19.5074V26.319C18.9963 26.2338 18.4852 26.0634 18.1444 25.7227C17.8889 26.0634 17.8037 26.4041 17.7185 26.7449Z" fill="#0061AE"/>
<path d="M19.5073 29.0442V28.1924C19.0814 28.2776 18.7407 28.3628 18.4851 28.6183C18.7407 28.7887 19.0814 28.959 19.5073 29.0442Z" fill="#0061AE"/>
<path d="M18.1444 28.2781C18.4852 27.9373 18.9963 27.767 19.5074 27.6818V27.2559H17.7185C17.8037 27.5966 17.8889 27.9373 18.1444 28.2781Z" fill="#0061AE"/>
<path d="M20.0184 24.9561V25.8079C20.4444 25.7227 20.7851 25.6375 21.0407 25.382C20.6999 25.2116 20.3592 25.0412 20.0184 24.9561Z" fill="#0061AE"/>
<path d="M19.5073 25.8079V24.9561C19.0814 24.9561 18.7407 25.1264 18.4851 25.382C18.7407 25.6375 19.0814 25.8079 19.5073 25.8079Z" fill="#0061AE"/>
<path d="M28.7074 15.8408H17.2925C14.3111 15.8408 11.8407 18.3112 11.8407 21.2927V32.7075C11.8407 35.689 14.3111 38.1593 17.2925 38.1593H28.7074C31.6888 38.1593 34.1592 35.689 34.1592 32.7075V21.2927C34.1592 18.3112 31.6888 15.8408 28.7074 15.8408ZM21.9777 30.7482H15.3333C14.8222 30.7482 14.3963 30.3223 14.3963 29.8112V24.189C14.3963 23.6779 14.8222 23.2519 15.3333 23.2519H21.8926V23.8482H16.8666C16.5259 23.8482 16.2703 24.1038 16.2703 24.4445V29.4705C16.2703 29.8112 16.5259 30.0667 16.8666 30.0667H21.8926L21.9777 30.7482ZM19.7629 29.4705C18.4 29.4705 17.2925 28.363 17.2925 27.0001C17.2925 25.6371 18.4 24.5297 19.7629 24.5297C21.1259 24.5297 22.3185 25.6371 22.3185 27.0001C22.2333 28.363 21.1259 29.4705 19.7629 29.4705ZM29.9851 30.7482H28.8777H27.8555H27.6H25.7259H22.574V30.1519C22.9148 30.1519 23.1703 29.8964 23.1703 29.5556V24.5297C23.1703 24.189 22.9148 23.9334 22.574 23.9334V23.3371H25.7259H28.2814H28.537H28.9629H29.8148C30.2407 23.3371 30.6666 23.5075 31.0074 23.763C31.4333 24.1038 31.6888 24.5297 31.6888 25.2112C31.6888 25.2964 31.6888 25.3816 31.6888 25.5519C31.6037 26.1482 31.1777 26.6593 30.6666 26.9149C31.4333 27.1705 32.0296 27.9371 32.0296 28.8742C32.0296 29.8112 31.0926 30.7482 29.9851 30.7482Z" fill="#0061AE"/>
<path d="M20.0184 29.0442C20.4444 28.959 20.7851 28.8739 21.0407 28.6183C20.7851 28.3628 20.3592 28.1924 20.0184 28.1924V29.0442Z" fill="#0061AE"/>
<path d="M20.0184 26.319V26.7449H21.8073C21.7221 26.4041 21.637 25.9782 21.3814 25.7227C20.9555 26.0634 20.5295 26.2338 20.0184 26.319Z" fill="#0061AE"/>
<path d="M20.0184 27.6818C20.5295 27.767 21.0407 27.9373 21.3814 28.2781C21.637 28.0225 21.7221 27.6818 21.8073 27.2559H20.0184V27.6818Z" fill="#0061AE"/>
</g>
<defs>
<clipPath id="clip0_44_1649">
<rect width="46" height="54" fill="white"/>
</clipPath>
</defs>
</svg>
