<svg width="46" height="54" viewBox="0 0 46 54" fill="none" xmlns="http://www.w3.org/2000/svg">
<g clip-path="url(#clip0_44_1639)">
<path d="M23 49.9146C10.3074 49.9146 0.0852051 39.6924 0.0852051 26.9998C0.0852051 14.3072 10.3074 4.08496 23 4.08496C35.6926 4.08496 46 14.3072 46 26.9998C46 39.6924 35.6926 49.9146 23 49.9146ZM23 9.19607C13.2037 9.19607 5.19632 17.2035 5.19632 26.9998C5.19632 36.7961 13.2037 44.8035 23 44.8035C32.7963 44.8035 40.8037 36.7961 40.8037 26.9998C40.8037 17.2035 32.7963 9.19607 23 9.19607Z" fill="#EDF5FB"/>
<path d="M34.1593 22.7408V21.0371C34.1593 19.8445 33.2222 18.8223 31.9445 18.8223H14.0556C12.863 18.8223 11.8408 19.7593 11.8408 21.0371V22.7408H34.1593Z" fill="#0061AE"/>
<path d="M11.8408 25.041V32.9632C11.8408 34.1558 12.7778 35.1781 14.0556 35.1781H31.9445C33.1371 35.1781 34.1593 34.241 34.1593 32.9632V25.041H11.8408ZM29.3037 32.3669C28.7926 32.3669 28.2815 32.1114 27.8556 31.7706C27.5148 32.1114 27.0037 32.3669 26.4074 32.3669C25.3 32.3669 24.363 31.4299 24.363 30.3225C24.363 29.2151 25.3 28.2781 26.4074 28.2781C26.9185 28.2781 27.4296 28.5336 27.8556 28.8743C28.1963 28.5336 28.7074 28.2781 29.3037 28.2781C30.4111 28.2781 31.3482 29.2151 31.3482 30.3225C31.3482 31.5151 30.4111 32.3669 29.3037 32.3669Z" fill="#0061AE"/>
</g>
<defs>
<clipPath id="clip0_44_1639">
<rect width="46" height="54" fill="white"/>
</clipPath>
</defs>
</svg>
