<svg width="54" height="54" viewBox="0 0 54 54" fill="none" xmlns="http://www.w3.org/2000/svg">
<g clip-path="url(#clip0_50_1870)">
<path d="M27.0001 53.9996C12.1001 53.9996 0.100098 41.8996 0.100098 26.9996C0.100098 12.0996 12.1001 0.0996094 27.0001 0.0996094C41.9001 0.0996094 54.0001 12.0996 54.0001 26.9996C54.0001 41.8996 41.9001 53.9996 27.0001 53.9996ZM27.0001 6.09961C15.5001 6.09961 6.1001 15.4996 6.1001 26.9996C6.1001 38.4996 15.5001 47.8996 27.0001 47.8996C38.5001 47.8996 47.9001 38.4996 47.9001 26.9996C47.9001 15.4996 38.5001 6.09961 27.0001 6.09961Z" fill="#EDF5FB"/>
<path d="M21.7002 39.0992C35.8002 39.0992 37.9002 32.5992 37.9002 26.1992H41.9002C42.2002 26.1992 42.4002 25.9992 42.4002 25.6992C42.4002 25.5992 42.3002 25.3992 42.2002 25.2992L35.2002 17.5992C35.0002 17.3992 34.7002 17.3992 34.5002 17.5992L27.5002 25.2992C27.3002 25.4992 27.3002 25.7992 27.5002 25.9992C27.6002 26.0992 27.7002 26.1992 27.9002 26.1992H31.9002C31.9002 32.1992 31.0002 36.9992 21.7002 39.0992Z" fill="#0061AE"/>
<path d="M32.3001 14.8994C18.2001 14.8994 16.1001 21.3994 16.1001 27.7994H12.1001C11.8001 27.7994 11.6001 27.9994 11.6001 28.2994C11.6001 28.3994 11.7001 28.5994 11.8001 28.6994L18.8001 36.3994C19.0001 36.5994 19.3001 36.5994 19.5001 36.3994L26.5001 28.6994C26.7001 28.4994 26.7001 28.1994 26.5001 27.9994C26.4001 27.8994 26.3001 27.7994 26.1001 27.7994H22.1001C22.1001 21.7994 23.0001 16.9994 32.3001 14.8994Z" fill="#0061AE"/>
</g>
<defs>
<clipPath id="clip0_50_1870">
<rect width="54" height="54" fill="white"/>
</clipPath>
</defs>
</svg>
