<svg width="32" height="32" viewBox="0 0 32 32" fill="none" xmlns="http://www.w3.org/2000/svg">
<g clip-path="url(#clip0_29_1158)">
<path d="M16.2 14.5996L11.6 8.09961H9.09998L14.8 16.0996L15.5 17.0996L20.4 23.8996H22.9L16.9 15.5996L16.2 14.5996Z" fill="white"/>
<path d="M16 0.200195C7.29995 0.200195 0.199951 7.3002 0.199951 16.0002C0.199951 24.7002 7.29995 31.8002 16 31.8002C24.7 31.8002 31.7999 24.7002 31.7999 16.0002C31.7999 7.3002 24.7 0.200195 16 0.200195ZM19.7 25.0002L14.8 18.0002L8.59995 25.0002H6.99995L14.1 17.0002L6.99995 7.0002H12.4L17.1 13.6002L23 7.0002H24.6L17.9 14.7002L25.2 25.1002H19.7V25.0002Z" fill="white"/>
</g>
<defs>
<clipPath id="clip0_29_1158">
<rect width="32" height="32" fill="white"/>
</clipPath>
</defs>
</svg>
