<svg width="32" height="32" viewBox="0 0 32 32" fill="none" xmlns="http://www.w3.org/2000/svg">
<g clip-path="url(#clip0_29_1161)">
<path d="M16.3 7.89941C11.9 7.89941 8.40002 11.4994 8.40002 15.7994C8.40002 17.2994 8.80003 18.7994 9.60003 19.9994L9.80002 20.2994L9.00002 23.1994L12 22.3994L12.3 22.5994C13.5 23.2994 14.9 23.6994 16.3 23.6994C20.7 23.6994 24.2 20.0994 24.2 15.7994C24.2 13.6994 23.4 11.6994 21.9 10.1994C20.4 8.69941 18.4 7.89941 16.3 7.89941ZM21 19.1994C20.8 19.7994 19.8 20.2994 19.4 20.2994H17.9C17.6 20.1994 17.1 19.9994 16.5 19.7994C14.1 18.7994 12.6 16.3994 12.4 16.1994C12.3 15.9994 11.4 14.8994 11.4 13.6994C11.4 12.4994 12 11.9994 12.2 11.6994C12.4 11.4994 12.7 11.3994 12.8 11.3994H13.3C13.4 11.3994 13.6 11.3994 13.8 11.7994C14 12.2994 14.5 13.3994 14.5 13.5994V13.9994C14.5 14.1994 14.4 14.2994 14.3 14.3994L13.9 14.7994C13.8 14.8994 13.7 14.9994 13.8 15.2994C13.9 15.4994 14.4 16.2994 15.1 16.9994C16 17.7994 16.8 18.0994 17 18.1994C17.2 18.2994 17.4 18.1994 17.5 18.1994C17.6 17.9994 18.1 17.4994 18.3 17.2994C18.5 17.0994 18.6 17.0994 18.8 17.1994C19 17.1994 20.2 17.8994 20.4 17.9994C20.6 18.0994 20.8 18.1994 20.9 18.2994C20.9 18.2994 20.9 18.8994 20.8 19.3994L21 19.1994Z" fill="white"/>
<path d="M16 0.299805C7.2 0.299805 0 7.39981 0 16.1998C0 24.9998 7.1 32.0998 15.9 32.0998C24.7 32.0998 31.8 24.9998 31.8 16.1998C31.8 7.39981 24.7 0.299805 16 0.299805ZM16.3 25.3998C14.7 25.3998 13.1 24.9998 11.7 24.1998L6.6 25.4998L8 20.5998C7.2 19.1998 6.7 17.4998 6.7 15.7998C6.7 10.4998 11 6.2998 16.2 6.2998C18.7 6.2998 21.1 7.2998 22.9 9.0998C24.7 10.8998 25.7 13.2998 25.7 15.7998C25.7 21.0998 21.4 25.2998 16.2 25.2998L16.3 25.3998Z" fill="white"/>
</g>
<defs>
<clipPath id="clip0_29_1161">
<rect width="32" height="32" fill="white"/>
</clipPath>
</defs>
</svg>
