<svg width="32" height="32" viewBox="0 0 32 32" fill="none" xmlns="http://www.w3.org/2000/svg">
<g clip-path="url(#clip0_29_1141)">
<path d="M19.1415 16.0734C19.1415 17.7681 17.7677 19.1419 16.073 19.1419C14.3783 19.1419 13.0045 17.7681 13.0045 16.0734C13.0045 14.3787 14.3783 13.0049 16.073 13.0049C17.7677 13.0049 19.1415 14.3787 19.1415 16.0734Z" fill="white"/>
<path d="M23.1556 10.5862C23.0085 10.1876 22.7738 9.82687 22.4689 9.53076C22.1728 9.22586 21.8123 8.99122 21.4135 8.84414C21.0901 8.71852 20.6042 8.569 19.7093 8.52827C18.7412 8.48412 18.4509 8.47461 16.0001 8.47461C13.549 8.47461 13.2587 8.48388 12.2909 8.52803C11.396 8.569 10.9098 8.71852 10.5867 8.84414C10.1879 8.99122 9.82711 9.22586 9.53125 9.53076C9.22635 9.82687 8.99171 10.1874 8.84438 10.5862C8.71877 10.9096 8.56925 11.3957 8.52851 12.2906C8.48437 13.2585 8.47485 13.5488 8.47485 15.9998C8.47485 18.4507 8.48437 18.741 8.52851 19.709C8.56925 20.604 8.71877 21.0898 8.84438 21.4133C8.99171 21.8121 9.22611 22.1726 9.531 22.4687C9.82711 22.7736 10.1876 23.0082 10.5864 23.1553C10.9098 23.2812 11.396 23.4307 12.2909 23.4714C13.2587 23.5156 13.5488 23.5248 15.9998 23.5248C18.4512 23.5248 18.7414 23.5156 19.709 23.4714C20.604 23.4307 21.0901 23.2812 21.4135 23.1553C22.214 22.8465 22.8468 22.2138 23.1556 21.4133C23.2812 21.0898 23.4307 20.604 23.4717 19.709C23.5158 18.741 23.5251 18.4507 23.5251 15.9998C23.5251 13.5488 23.5158 13.2585 23.4717 12.2906C23.4309 11.3957 23.2814 10.9096 23.1556 10.5862ZM16.0001 20.713C13.3968 20.713 11.2865 18.6029 11.2865 15.9996C11.2865 13.3963 13.3968 11.2862 16.0001 11.2862C18.6031 11.2862 20.7135 13.3963 20.7135 15.9996C20.7135 18.6029 18.6031 20.713 16.0001 20.713ZM20.8998 12.2014C20.2915 12.2014 19.7983 11.7082 19.7983 11.0999C19.7983 10.4915 20.2915 9.99834 20.8998 9.99834C21.5082 9.99834 22.0014 10.4915 22.0014 11.0999C22.0011 11.7082 21.5082 12.2014 20.8998 12.2014Z" fill="white"/>
<path d="M16 0C7.16479 0 0 7.16479 0 16C0 24.8352 7.16479 32 16 32C24.8352 32 32 24.8352 32 16C32 7.16479 24.8352 0 16 0ZM25.1321 19.7878C25.0876 20.7659 24.9321 21.4336 24.7051 22.0181C24.2278 23.2522 23.2522 24.2278 22.0181 24.7051C21.4338 24.9321 20.7659 25.0874 19.7881 25.1321C18.8083 25.1768 18.4954 25.1875 16.0002 25.1875C13.5049 25.1875 13.1921 25.1768 12.2122 25.1321C11.2344 25.0874 10.5664 24.9321 9.98218 24.7051C9.3689 24.4744 8.81372 24.1128 8.35474 23.6453C7.88745 23.1865 7.52588 22.6311 7.29517 22.0181C7.06812 21.4338 6.9126 20.7659 6.86816 19.7881C6.823 18.8081 6.8125 18.4951 6.8125 16C6.8125 13.5049 6.823 13.1919 6.86792 12.2122C6.91235 11.2341 7.06763 10.5664 7.29468 9.98193C7.52539 9.3689 7.88721 8.81348 8.35474 8.35474C8.81348 7.88721 9.3689 7.52563 9.98193 7.29492C10.5664 7.06787 11.2341 6.9126 12.2122 6.86792C13.1919 6.82324 13.5049 6.8125 16 6.8125C18.4951 6.8125 18.8081 6.82324 19.7878 6.86816C20.7659 6.9126 21.4336 7.06787 22.0181 7.29468C22.6311 7.52539 23.1865 7.88721 23.6455 8.35474C24.1128 8.81372 24.4746 9.3689 24.7051 9.98193C24.9324 10.5664 25.0876 11.2341 25.1323 12.2122C25.177 13.1919 25.1875 13.5049 25.1875 16C25.1875 18.4951 25.177 18.8081 25.1321 19.7878Z" fill="white"/>
</g>
<defs>
<clipPath id="clip0_29_1141">
<rect width="32" height="32" fill="white"/>
</clipPath>
</defs>
</svg>
