<svg width="134" height="40" viewBox="0 0 134 40" fill="none" xmlns="http://www.w3.org/2000/svg">
<g clip-path="url(#clip0_29_1181)">
<path d="M129 0H5C2.23858 0 0 2.23858 0 5V35C0 37.7614 2.23858 40 5 40H129C131.761 40 134 37.7614 134 35V5C134 2.23858 131.761 0 129 0Z" fill="black"/>
<path d="M129.037 0.8C131.339 0.8 133.206 2.6804 133.206 5V35C133.206 37.3196 131.339 39.2 129.037 39.2H4.96296C2.66055 39.2 0.794074 37.3196 0.794074 35V5C0.794074 2.6804 2.66055 0.8 4.96296 0.8H129.037ZM129.037 0H4.96296C2.22199 0 0 2.23858 0 5V35C0 37.7614 2.22199 40 4.96296 40H129.037C131.778 40 134 37.7614 134 35V5C134 2.23858 131.778 0 129.037 0Z" fill="#A6A6A6"/>
<path d="M67.6353 21.7501C65.308 21.7612 63.4293 23.6688 63.4366 26.0134C63.4439 28.358 65.3345 30.2537 67.6617 30.2501C69.9889 30.2464 71.8736 28.3447 71.8736 26.0001C71.89 24.8645 71.448 23.7708 70.649 22.9696C69.85 22.1684 68.7624 21.7283 67.6353 21.7501ZM67.6353 28.5801C66.5863 28.654 65.5991 28.0745 65.1459 27.1186C64.6926 26.1627 64.8654 25.0248 65.5816 24.2492C66.2977 23.4735 67.4118 23.2178 68.3908 23.6042C69.3699 23.9907 70.0149 24.9408 70.0175 26.0001C70.0498 26.6628 69.815 27.3105 69.3665 27.7963C68.9179 28.2821 68.2936 28.5648 67.6353 28.5801ZM58.3942 21.7501C56.0657 21.7557 54.182 23.6609 54.1856 26.0068C54.1893 28.3527 56.0789 30.252 58.4075 30.2501C60.736 30.2483 62.6227 28.346 62.6227 26.0001C62.639 24.8645 62.1971 23.7708 61.3981 22.9696C60.599 22.1684 59.5114 21.7283 58.3843 21.7501H58.3942ZM58.3942 28.5801C57.3447 28.6582 56.3547 28.0815 55.8982 27.1262C55.4417 26.171 55.6118 25.0316 56.327 24.2538C57.0421 23.4761 58.1568 23.2182 59.137 23.6038C60.1173 23.9894 60.7637 24.9399 60.7665 26.0001C60.7988 26.6628 60.5641 27.3105 60.1155 27.7963C59.667 28.2821 59.0427 28.5648 58.3843 28.5801H58.3942ZM47.3864 23.0601V24.8601H51.6744C51.6071 25.7079 51.2573 26.5079 50.6818 27.1301C49.8143 28.0204 48.6138 28.4998 47.3764 28.4501C44.7451 28.4501 42.612 26.3011 42.612 23.6501C42.612 20.9992 44.7451 18.8501 47.3764 18.8501C48.5852 18.8303 49.7525 19.2942 50.6222 20.1401L51.8828 18.8701C50.6966 17.66 49.0745 16.9854 47.3864 17.0001C44.9833 16.9059 42.7216 18.1438 41.4922 20.2262C40.2628 22.3086 40.2628 24.9017 41.4922 26.9841C42.7216 29.0665 44.9833 30.3044 47.3864 30.2101C49.1053 30.2884 50.7738 29.6138 51.9622 28.3601C53.0021 27.2091 53.5574 25.6959 53.5107 24.1401C53.5139 23.7611 53.4806 23.3827 53.4114 23.0101L47.3864 23.0601ZM92.3607 24.4601C91.8308 22.8893 90.3934 21.8112 88.7477 21.7501C87.6503 21.748 86.6009 22.2035 85.8487 23.0087C85.0966 23.8138 84.7087 24.8967 84.7773 26.0001C84.753 27.1294 85.1855 28.2202 85.9754 29.0217C86.7654 29.8233 87.845 30.2667 88.9661 30.2501C90.3764 30.2578 91.6963 29.5516 92.4799 28.3701L91.0406 27.3701C90.6036 28.1041 89.8156 28.5523 88.9661 28.5501C88.0862 28.5839 87.2753 28.0723 86.9213 27.2601L92.5692 24.9101L92.3607 24.4601ZM86.6037 25.8801C86.5631 25.2553 86.7738 24.6403 87.1883 24.1737C87.6029 23.7072 88.1864 23.4284 88.8073 23.4001C89.4617 23.3567 90.0788 23.7108 90.3756 24.3001L86.6037 25.8801ZM82.0179 30.0001H83.8741V17.5001H82.0179V30.0001ZM78.9806 22.7001H78.9111C78.3453 22.0628 77.5364 21.699 76.6877 21.7001C74.4347 21.8102 72.6641 23.6826 72.6641 25.9551C72.6641 28.2277 74.4347 30.1001 76.6877 30.2101C77.5392 30.2246 78.3533 29.8584 78.9111 29.2101H78.9707V29.8201C78.9707 31.4501 78.1071 32.3201 76.7175 32.3201C75.7709 32.2978 74.9315 31.7012 74.5933 30.8101L72.9754 31.4901C73.5984 33.0169 75.0789 34.01 76.7175 34.0002C78.8913 34.0002 80.6879 32.7101 80.6879 29.5701V22.0001H78.9806V22.7001ZM76.8564 28.5801C75.5292 28.4623 74.5113 27.3424 74.5113 26.0001C74.5113 24.6578 75.5292 23.538 76.8564 23.4201C77.4978 23.4533 78.0987 23.7459 78.5229 24.2316C78.9471 24.7174 79.1586 25.3551 79.1096 26.0001C79.1644 26.6482 78.9535 27.2906 78.526 27.7779C78.0985 28.2653 77.4916 28.5552 76.8465 28.5801H76.8564ZM101.056 17.5001H96.619V30.0001H98.4751V25.2601H101.066C102.508 25.3645 103.887 24.6486 104.639 23.4051C105.392 22.1616 105.392 20.5987 104.639 19.3552C103.887 18.1116 102.508 17.3958 101.066 17.5001H101.056ZM101.056 23.5001H98.4652V19.2401H101.096C102.271 19.2401 103.225 20.2005 103.225 21.3851C103.225 22.5698 102.271 23.5301 101.096 23.5301L101.056 23.5001ZM112.5 21.7001C111.119 21.617 109.821 22.3672 109.195 23.6101L110.843 24.3001C111.175 23.6838 111.837 23.323 112.53 23.3801C113.006 23.3241 113.485 23.4631 113.858 23.7658C114.231 24.0686 114.468 24.5097 114.515 24.9901V25.1201C113.919 24.8021 113.254 24.6373 112.58 24.6401C110.803 24.6401 109.007 25.6401 109.007 27.4501C109.042 28.2298 109.389 28.962 109.968 29.4799C110.548 29.9979 111.311 30.2577 112.084 30.2001C113.036 30.269 113.949 29.8089 114.466 29.0001H114.525V30.0001H116.312V25.1901C116.312 23.0001 114.664 21.7301 112.55 21.7301L112.5 21.7001ZM112.272 28.5501C111.667 28.5501 110.823 28.2401 110.823 27.4901C110.823 26.4901 111.875 26.1601 112.808 26.1601C113.398 26.1455 113.981 26.2905 114.496 26.5801C114.367 27.6996 113.44 28.5527 112.322 28.5801L112.272 28.5501ZM122.823 22.0001L120.699 27.4201H120.64L118.436 22.0001H116.451L119.756 29.5801L117.87 33.7901H119.806L124.888 22.0001H122.823ZM106.138 30.0001H107.994V17.5001H106.138V30.0001Z" fill="white"/>
<path d="M47.0688 10.2405C47.1029 10.9817 46.8338 11.7046 46.3243 12.2405C45.755 12.8363 44.961 13.1599 44.1406 13.1305C42.8823 13.1205 41.7526 12.3517 41.2737 11.1794C40.7948 10.0071 41.0601 8.65978 41.947 7.76046C42.5232 7.16779 43.3173 6.84197 44.1406 6.86046C44.5602 6.85905 44.9757 6.94413 45.3615 7.11046C45.7207 7.25641 46.0404 7.48602 46.2945 7.78046L45.7685 8.31046C45.3668 7.82914 44.7638 7.56615 44.1406 7.60046C43.5141 7.59736 42.9135 7.85155 42.4771 8.3044C42.0407 8.75725 41.8063 9.36968 41.8279 10.0005C41.8146 10.9536 42.3718 11.8213 43.2403 12.1997C44.1087 12.5781 45.1179 12.393 45.7982 11.7305C46.1037 11.397 46.2798 10.964 46.2945 10.5105H44.1406V9.79046H47.0291C47.0555 9.93897 47.0688 10.0896 47.0688 10.2405ZM51.6148 7.74046H48.9348V9.64046H51.3766V10.3605H48.9348V12.2605H51.6148V13.0005H48.1408V7.00046H51.6148V7.74046ZM54.8705 13.0005H54.1062V7.74046H52.4387V7.00046H56.5778V7.74046H54.8705V13.0005ZM59.496 13.0005V7.00046H60.2603V13.0005H59.496ZM63.655 13.0005H62.8907V7.74046H61.2231V7.00046H65.3126V7.74046H63.655V13.0005ZM73.0648 12.2205C71.8568 13.4307 69.9054 13.4307 68.6974 12.2205C67.5264 10.9717 67.5264 9.01923 68.6974 7.77046C69.275 7.18421 70.0611 6.85449 70.8811 6.85449C71.701 6.85449 72.4871 7.18421 73.0648 7.77046C74.2408 9.01722 74.2408 10.9737 73.0648 12.2205ZM69.2631 11.7205C70.1578 12.618 71.6043 12.618 72.499 11.7205C73.3776 10.7446 73.3776 9.25629 72.499 8.28046C71.6043 7.38289 70.1578 7.38289 69.2631 8.28046C68.3845 9.25629 68.3845 10.7446 69.2631 11.7205ZM75.0202 13.0005V7.00046H75.9532L78.8516 11.6705V7.00046H79.6159V13.0005H78.8218L75.7944 8.11046V13.0005H75.0202Z" fill="white" stroke="white" stroke-width="0.2"/>
<path d="M10.3626 7.53973C10.0391 7.93083 9.8758 8.43152 9.90602 8.93973V31.0597C9.8758 31.5679 10.0391 32.0686 10.3626 32.4597L10.4321 32.5297L22.7303 20.1497V19.8597L10.4321 7.46973L10.3626 7.53973Z" fill="url(#paint0_linear_29_1181)"/>
<path d="M26.8 24.2797L22.7303 20.1497V19.8597L26.8 15.7197L26.8893 15.7697L31.7629 18.5597C33.1526 19.3497 33.1526 20.6497 31.7629 21.4497L26.9092 24.2297L26.8 24.2797Z" fill="url(#paint1_linear_29_1181)"/>
<path d="M26.9191 24.22L22.7304 20L10.3627 32.46C10.947 32.9775 11.8143 33.0027 12.4273 32.52L26.929 24.22" fill="url(#paint2_linear_29_1181)"/>
<path d="M26.919 15.7796L12.4173 7.47956C11.8043 6.99684 10.937 7.02204 10.3527 7.53956L22.7303 19.9996L26.919 15.7796Z" fill="url(#paint3_linear_29_1181)"/>
<path opacity="0.2" d="M26.8 24.1299L12.4173 32.3799C11.8288 32.8232 11.0207 32.8232 10.4322 32.3799L10.3627 32.4499L10.4322 32.5199C11.0196 32.9666 11.8299 32.9666 12.4173 32.5199L26.9191 24.2199L26.8 24.1299Z" fill="black"/>
<path opacity="0.12" d="M10.3626 32.32C10.0391 31.9289 9.8758 31.4282 9.90602 30.92V31.07C9.8758 31.5782 10.0391 32.0789 10.3626 32.47L10.4321 32.4L10.3626 32.32ZM31.7629 21.3L26.7999 24.13L26.8893 24.22L31.7629 21.44C32.3258 21.1736 32.7044 20.6244 32.7555 20C32.6424 20.5648 32.2758 21.045 31.7629 21.3Z" fill="black"/>
<path opacity="0.25" d="M12.4173 7.61945L31.7629 18.6994C32.2758 18.9545 32.6424 19.4346 32.7555 19.9994C32.7044 19.375 32.3258 18.8258 31.7629 18.5594L12.4173 7.47945C11.0277 6.68945 9.89612 7.34945 9.89612 8.94945V9.09945C9.9259 7.48945 11.0376 6.82945 12.4173 7.61945Z" fill="white"/>
</g>
<defs>
<linearGradient id="paint0_linear_29_1181" x1="790.748" y1="131.47" x2="-264.819" y2="1194.91" gradientUnits="userSpaceOnUse">
<stop stop-color="#00A0FF"/>
<stop offset="0.01" stop-color="#00A1FF"/>
<stop offset="0.26" stop-color="#00BEFF"/>
<stop offset="0.51" stop-color="#00D2FF"/>
<stop offset="0.76" stop-color="#00DFFF"/>
<stop offset="1" stop-color="#00E3FF"/>
</linearGradient>
<linearGradient id="paint1_linear_29_1181" x1="1107.63" y1="443.72" x2="-1293.45" y2="443.72" gradientUnits="userSpaceOnUse">
<stop stop-color="#FFE000"/>
<stop offset="0.41" stop-color="#FFBD00"/>
<stop offset="0.78" stop-color="#FFA500"/>
<stop offset="1" stop-color="#FF9C00"/>
</linearGradient>
<linearGradient id="paint2_linear_29_1181" x1="1438.7" y1="414.018" x2="-369.018" y2="2234.43" gradientUnits="userSpaceOnUse">
<stop stop-color="#FF3A44"/>
<stop offset="1" stop-color="#C31162"/>
</linearGradient>
<linearGradient id="paint3_linear_29_1181" x1="-300.329" y1="-157.006" x2="506.545" y2="655.89" gradientUnits="userSpaceOnUse">
<stop stop-color="#32A071"/>
<stop offset="0.07" stop-color="#2DA771"/>
<stop offset="0.48" stop-color="#15CF74"/>
<stop offset="0.8" stop-color="#06E775"/>
<stop offset="1" stop-color="#00F076"/>
</linearGradient>
<clipPath id="clip0_29_1181">
<rect width="134" height="40" fill="white"/>
</clipPath>
</defs>
</svg>
